<svg width="111" height="61" viewBox="0 0 111 61" fill="none" xmlns="http://www.w3.org/2000/svg">
<path d="M43.1099 23.9999H67.1099V-5.38826e-05H43.1099V23.9999ZM6.76805 48.2239H6.64805C6.44005 48.7999 6.20805 49.4559 5.95205 50.1919C5.71205 50.9279 5.45605 51.6959 5.18405 52.4959C4.91205 53.2799 4.65605 54.0399 4.41605 54.7759L4.08005 56.2639C3.98405 56.5679 3.88005 56.9039 3.76805 57.2719C3.67205 57.6399 3.56005 58.0159 3.43205 58.3999C3.32005 58.7679 3.20805 59.1199 3.09605 59.4559C3.00005 59.7919 2.91205 60.0879 2.83205 60.3439C2.67205 60.3919 2.49605 60.4319 2.30405 60.4639C2.12805 60.5119 1.91205 60.5359 1.65605 60.5359C1.14405 60.5359 0.736051 60.4399 0.432051 60.2479C0.144051 60.0399 5.07981e-05 59.7359 5.07981e-05 59.3359C5.07981e-05 59.1599 0.0240508 58.9759 0.0720508 58.7839C0.136051 58.5919 0.200051 58.3759 0.264051 58.1359C0.424051 57.6079 0.640051 56.9519 0.912051 56.1679C1.18405 55.3679 1.48005 54.5039 1.80005 53.5759C2.12005 52.6479 2.44805 51.7119 2.78405 50.7679C3.13605 49.8239 3.46405 48.9439 3.76805 48.1279C4.07205 47.2959 4.33605 46.5999 4.56005 46.0399C4.75205 45.9279 5.04805 45.8239 5.44805 45.7279C5.84805 45.6319 6.25605 45.5839 6.67205 45.5839C7.21605 45.5839 7.71205 45.6639 8.16005 45.8239C8.62405 45.9839 8.91205 46.2399 9.02405 46.5919C9.36005 47.4719 9.72005 48.4799 10.1041 49.6159C10.4881 50.7519 10.8801 51.9359 11.2801 53.1679C11.6801 54.3999 12.0641 55.5999 12.4321 56.7679C12.8001 57.9359 13.1281 58.9919 13.4161 59.9359C13.2561 60.1119 13.0321 60.2559 12.7441 60.3679C12.4721 60.4799 12.1521 60.5359 11.7841 60.5359C11.2561 60.5359 10.8721 60.4399 10.6321 60.2479C10.4081 60.0399 10.2321 59.7279 10.1041 59.3119L9.12005 56.1679L8.80805 54.6319C8.55205 53.8159 8.29605 53.0159 8.04005 52.2319C7.80005 51.4319 7.56805 50.6879 7.34405 49.9999C7.12005 49.3119 6.92805 48.7199 6.76805 48.2239ZM2.73605 56.8399L3.86405 54.4639H9.86405L10.3201 56.8399H2.73605ZM22.9547 57.8239V50.2879H25.9067V58.1359C25.9067 58.4879 25.8267 58.7839 25.6667 59.0239C25.5227 59.2479 25.2827 59.4639 24.9467 59.6719C24.5627 59.9279 24.0347 60.1519 23.3627 60.3439C22.7067 60.5519 21.9547 60.6559 21.1067 60.6559C19.8427 60.6559 18.7387 60.4479 17.7947 60.0319C16.8667 59.5999 16.1467 58.9439 15.6347 58.0639C15.1227 57.1679 14.8667 56.0399 14.8667 54.6799C14.8667 53.2879 15.1227 52.1439 15.6347 51.2479C16.1627 50.3519 16.8667 49.6959 17.7467 49.2799C18.6267 48.8479 19.6027 48.6319 20.6747 48.6319C21.2667 48.6319 21.8027 48.7039 22.2827 48.8479C22.7787 48.9919 23.1787 49.1599 23.4827 49.3519V51.8719C23.2267 51.6319 22.8907 51.4239 22.4747 51.2479C22.0587 51.0719 21.5787 50.9839 21.0347 50.9839C20.4427 50.9839 19.9067 51.1119 19.4267 51.3679C18.9467 51.6079 18.5707 52.0079 18.2987 52.5679C18.0267 53.1119 17.8907 53.8239 17.8907 54.7039C17.8907 55.9519 18.1787 56.8639 18.7547 57.4399C19.3307 58.0159 20.1067 58.3039 21.0827 58.3039C21.5147 58.3039 21.8827 58.2559 22.1867 58.1599C22.4907 58.0639 22.7467 57.9519 22.9547 57.8239ZM25.9067 50.8879L22.9547 50.9119V44.7199C23.0667 44.6879 23.2427 44.6479 23.4827 44.5999C23.7387 44.5519 24.0027 44.5279 24.2747 44.5279C24.8507 44.5279 25.2667 44.6319 25.5227 44.8399C25.7787 45.0319 25.9067 45.3839 25.9067 45.8959V50.8879ZM37.7965 48.7279C38.2125 48.7279 38.5565 48.8239 38.8285 49.0159C39.1005 49.2079 39.2365 49.5119 39.2365 49.9279C39.2365 50.1839 39.1485 50.6159 38.9725 51.2239C38.8125 51.8159 38.5965 52.5119 38.3245 53.3119C38.0525 54.1119 37.7485 54.9359 37.4125 55.7839C37.0925 56.6319 36.7645 57.4399 36.4285 58.2079C36.0925 58.9599 35.7885 59.5919 35.5165 60.1039C35.3725 60.2159 35.1405 60.3119 34.8205 60.3919C34.5165 60.4719 34.1725 60.5119 33.7885 60.5119C33.3405 60.5119 32.9565 60.4479 32.6365 60.3199C32.3165 60.2079 32.0925 60.0239 31.9645 59.7679C31.7885 59.4319 31.5645 58.9599 31.2925 58.3519C31.0365 57.7439 30.7565 57.0479 30.4525 56.2639C30.1485 55.4799 29.8445 54.6719 29.5405 53.8399C29.2365 53.0079 28.9565 52.2079 28.7005 51.4399C28.4605 50.6719 28.2605 49.9919 28.1005 49.3999C28.2765 49.2079 28.5005 49.0479 28.7725 48.9199C29.0605 48.7919 29.3565 48.7279 29.6605 48.7279C30.0765 48.7279 30.4125 48.8239 30.6685 49.0159C30.9405 49.1919 31.1405 49.5199 31.2685 49.9999L32.4925 54.0079C32.6205 54.4239 32.7645 54.8799 32.9245 55.3759C33.1005 55.8559 33.2605 56.3199 33.4045 56.7679C33.5485 57.1999 33.6685 57.5679 33.7645 57.8719H33.8605C34.3405 56.4639 34.8045 54.9999 35.2525 53.4799C35.7165 51.9599 36.1165 50.4799 36.4525 49.0399C36.8365 48.8319 37.2845 48.7279 37.7965 48.7279ZM42.6137 56.1439L42.4937 54.0799L48.9257 53.1199C48.8777 52.5119 48.6457 51.9839 48.2297 51.5359C47.8137 51.0879 47.2057 50.8639 46.4057 50.8639C45.5897 50.8639 44.9097 51.1519 44.3657 51.7279C43.8217 52.2879 43.5417 53.0959 43.5257 54.1519L43.5977 55.3999C43.7417 56.4239 44.1337 57.1759 44.7737 57.6559C45.4297 58.1359 46.2537 58.3759 47.2457 58.3759C47.9177 58.3759 48.5417 58.2799 49.1177 58.0879C49.6937 57.8799 50.1497 57.6559 50.4857 57.4159C50.7097 57.5599 50.8857 57.7439 51.0137 57.9679C51.1577 58.1759 51.2297 58.4079 51.2297 58.6639C51.2297 59.0799 51.0457 59.4399 50.6777 59.7439C50.3097 60.0319 49.8137 60.2559 49.1897 60.4159C48.5657 60.5759 47.8537 60.6559 47.0537 60.6559C45.8217 60.6559 44.7257 60.4319 43.7657 59.9839C42.8217 59.5199 42.0777 58.8319 41.5337 57.9199C41.0057 57.0079 40.7417 55.8719 40.7417 54.5119C40.7417 53.5359 40.8937 52.6799 41.1977 51.9439C41.5017 51.2079 41.9097 50.5999 42.4217 50.1199C42.9497 49.6239 43.5577 49.2559 44.2457 49.0159C44.9337 48.7599 45.6537 48.6319 46.4057 48.6319C47.4617 48.6319 48.3817 48.8479 49.1657 49.2799C49.9657 49.6959 50.5897 50.2799 51.0377 51.0319C51.5017 51.7839 51.7337 52.6479 51.7337 53.6239C51.7337 54.0719 51.6137 54.4079 51.3737 54.6319C51.1497 54.8399 50.8297 54.9679 50.4137 55.0159L42.6137 56.1439ZM64.6026 52.9039V55.2319H61.6506V53.0239C61.6506 52.3199 61.4506 51.8079 61.0506 51.4879C60.6506 51.1519 60.1146 50.9839 59.4426 50.9839C58.9466 50.9839 58.4986 51.0479 58.0986 51.1759C57.7146 51.2879 57.3706 51.4239 57.0666 51.5839V55.2319H54.1146V51.3919C54.1146 51.0079 54.1946 50.6959 54.3546 50.4559C54.5146 50.1999 54.7546 49.9679 55.0746 49.7599C55.5546 49.4399 56.1706 49.1759 56.9226 48.9679C57.6906 48.7439 58.5386 48.6319 59.4666 48.6319C61.0826 48.6319 62.3386 48.9919 63.2346 49.7119C64.1466 50.4319 64.6026 51.4959 64.6026 52.9039ZM54.1146 54.0559H57.0666V60.2719C56.9386 60.3199 56.7546 60.3599 56.5146 60.3919C56.2746 60.4399 56.0106 60.4639 55.7226 60.4639C55.1786 60.4639 54.7706 60.3679 54.4986 60.1759C54.2426 59.9679 54.1146 59.6079 54.1146 59.0959V54.0559ZM61.6506 54.0559H64.6026V60.2719C64.4906 60.3199 64.3066 60.3599 64.0506 60.3919C63.8106 60.4399 63.5546 60.4639 63.2826 60.4639C62.7226 60.4639 62.3066 60.3679 62.0346 60.1759C61.7786 59.9679 61.6506 59.6079 61.6506 59.0959V54.0559ZM67.7324 53.9839H70.6844V56.8159C70.6844 57.3439 70.8364 57.7199 71.1404 57.9439C71.4604 58.1679 71.9084 58.2799 72.4844 58.2799C72.7404 58.2799 73.0124 58.2479 73.3004 58.1839C73.6044 58.1199 73.8604 58.0399 74.0684 57.9439C74.1804 58.0719 74.2844 58.2239 74.3804 58.3999C74.4764 58.5759 74.5244 58.7919 74.5244 59.0479C74.5244 59.5119 74.3004 59.8959 73.8524 60.1999C73.4204 60.5039 72.7404 60.6559 71.8124 60.6559C70.5484 60.6559 69.5484 60.3759 68.8124 59.8159C68.0924 59.2399 67.7324 58.3119 67.7324 57.0319V53.9839ZM69.5324 51.5359V49.2079H74.2364C74.3004 49.3199 74.3644 49.4799 74.4284 49.6879C74.5084 49.8959 74.5484 50.1119 74.5484 50.3359C74.5484 50.7359 74.4524 51.0399 74.2604 51.2479C74.0684 51.4399 73.8204 51.5359 73.5164 51.5359H69.5324ZM70.6844 54.6319H67.7324V45.9919C67.8604 45.9439 68.0444 45.8959 68.2844 45.8479C68.5404 45.7999 68.8044 45.7759 69.0764 45.7759C69.6364 45.7759 70.0444 45.8799 70.3004 46.0879C70.5564 46.2799 70.6844 46.6319 70.6844 47.1439V54.6319ZM76.849 55.9759V54.0799H79.801V55.9279C79.801 56.7759 80.017 57.3839 80.449 57.7519C80.897 58.1199 81.513 58.3039 82.297 58.3039C82.809 58.3039 83.241 58.2559 83.593 58.1599C83.945 58.0639 84.209 57.9599 84.385 57.8479V54.0799H87.337V58.0879C87.337 58.4559 87.273 58.7679 87.145 59.0239C87.033 59.2639 86.809 59.4879 86.473 59.6959C86.009 59.9679 85.417 60.1919 84.697 60.3679C83.993 60.5599 83.185 60.6559 82.273 60.6559C81.169 60.6559 80.209 60.4959 79.393 60.1759C78.577 59.8559 77.945 59.3519 77.497 58.6639C77.065 57.9599 76.849 57.0639 76.849 55.9759ZM87.337 55.2319H84.385V48.9919C84.513 48.9599 84.697 48.9279 84.937 48.8959C85.193 48.8479 85.457 48.8239 85.729 48.8239C86.289 48.8239 86.697 48.9199 86.953 49.1119C87.209 49.3039 87.337 49.6639 87.337 50.1919V55.2319ZM79.801 55.2319H76.849V48.9919C76.977 48.9599 77.161 48.9279 77.401 48.8959C77.641 48.8479 77.905 48.8239 78.193 48.8239C78.753 48.8239 79.161 48.9199 79.417 49.1119C79.673 49.3039 79.801 49.6639 79.801 50.1919V55.2319ZM93.3713 51.6799V54.9679H90.4193V51.4399C90.4193 51.0399 90.5153 50.7039 90.7073 50.4319C90.8993 50.1439 91.1713 49.8799 91.5233 49.6399C92.0033 49.3519 92.6113 49.1119 93.3473 48.9199C94.0833 48.7279 94.8753 48.6319 95.7233 48.6319C97.2273 48.6319 97.9793 49.0959 97.9793 50.0239C97.9793 50.2479 97.9473 50.4559 97.8833 50.6479C97.8193 50.8239 97.7393 50.9839 97.6433 51.1279C97.4833 51.0959 97.2833 51.0719 97.0433 51.0559C96.8033 51.0239 96.5473 51.0079 96.2753 51.0079C95.6993 51.0079 95.1553 51.0719 94.6433 51.1999C94.1473 51.3119 93.7233 51.4719 93.3713 51.6799ZM90.4193 53.9839L93.3713 54.1279V60.2719C93.2433 60.3199 93.0593 60.3599 92.8193 60.3919C92.5793 60.4399 92.3153 60.4639 92.0273 60.4639C91.4833 60.4639 91.0753 60.3679 90.8033 60.1759C90.5473 59.9679 90.4193 59.6079 90.4193 59.0959V53.9839ZM100.903 56.1439L100.783 54.0799L107.215 53.1199C107.167 52.5119 106.935 51.9839 106.519 51.5359C106.103 51.0879 105.495 50.8639 104.695 50.8639C103.879 50.8639 103.199 51.1519 102.655 51.7279C102.111 52.2879 101.831 53.0959 101.815 54.1519L101.887 55.3999C102.031 56.4239 102.423 57.1759 103.063 57.6559C103.719 58.1359 104.543 58.3759 105.535 58.3759C106.207 58.3759 106.831 58.2799 107.407 58.0879C107.983 57.8799 108.439 57.6559 108.775 57.4159C108.999 57.5599 109.175 57.7439 109.303 57.9679C109.447 58.1759 109.519 58.4079 109.519 58.6639C109.519 59.0799 109.335 59.4399 108.967 59.7439C108.599 60.0319 108.103 60.2559 107.479 60.4159C106.855 60.5759 106.143 60.6559 105.343 60.6559C104.111 60.6559 103.015 60.4319 102.055 59.9839C101.111 59.5199 100.367 58.8319 99.8228 57.9199C99.2948 57.0079 99.0308 55.8719 99.0308 54.5119C99.0308 53.5359 99.1828 52.6799 99.4868 51.9439C99.7908 51.2079 100.199 50.5999 100.711 50.1199C101.239 49.6239 101.847 49.2559 102.535 49.0159C103.223 48.7599 103.943 48.6319 104.695 48.6319C105.751 48.6319 106.671 48.8479 107.455 49.2799C108.255 49.6959 108.879 50.2799 109.327 51.0319C109.791 51.7839 110.023 52.6479 110.023 53.6239C110.023 54.0719 109.903 54.4079 109.663 54.6319C109.439 54.8399 109.119 54.9679 108.703 55.0159L100.903 56.1439Z" fill="black"/>
</svg>
