<svg width="22" height="22" viewBox="0 0 22 22" fill="none" xmlns="http://www.w3.org/2000/svg">
<path d="M1.41667 7.41679H20.0833M1.41667 14.0835H20.0833M0.75 10.7501C0.75 12.0633 1.00866 13.3637 1.5112 14.577C2.01375 15.7902 2.75035 16.8926 3.67893 17.8212C4.60752 18.7498 5.70991 19.4864 6.92317 19.9889C8.13642 20.4915 9.43678 20.7501 10.75 20.7501C12.0632 20.7501 13.3636 20.4915 14.5768 19.9889C15.7901 19.4864 16.8925 18.7498 17.8211 17.8212C18.7497 16.8926 19.4863 15.7902 19.9888 14.577C20.4913 13.3637 20.75 12.0633 20.75 10.7501C20.75 8.09796 19.6964 5.55442 17.8211 3.67905C15.9457 1.80369 13.4022 0.750122 10.75 0.750122C8.09784 0.750122 5.5543 1.80369 3.67893 3.67905C1.80357 5.55442 0.75 8.09796 0.75 10.7501Z" stroke="#464540" stroke-width="1.5" stroke-linecap="round" stroke-linejoin="round"/>
<path d="M10.1945 0.750122C8.32263 3.74969 7.33026 7.21442 7.33026 10.7501C7.33026 14.2858 8.32263 17.7506 10.1945 20.7501M11.3056 0.750122C13.1774 3.74969 14.1698 7.21442 14.1698 10.7501C14.1698 14.2858 13.1774 17.7506 11.3056 20.7501" stroke="#464540" stroke-width="1.5" stroke-linecap="round" stroke-linejoin="round"/>
</svg>
