<svg width="20" height="20" viewBox="0 0 20 20" fill="none" xmlns="http://www.w3.org/2000/svg">
<path d="M2.30857 20C1.65048 20 1.10143 19.8289 0.661428 19.4867C0.221428 19.1444 0.000952381 18.7174 0 18.2056V1.79444C0 1.28333 0.220476 0.856667 0.661428 0.514444C1.10238 0.172222 1.65143 0.000740741 2.30857 0H13.5714L20 5V18.2056C20 18.7167 19.78 19.1437 19.34 19.4867C18.9 19.8296 18.3505 20.0007 17.6914 20H2.30857ZM12.8571 5.55556V1.11111H2.30857C2.08857 1.11111 1.88667 1.18222 1.70286 1.32444C1.51905 1.46667 1.42762 1.62333 1.42857 1.79444V18.2056C1.42857 18.3759 1.52 18.5326 1.70286 18.6756C1.88571 18.8185 2.08714 18.8896 2.30714 18.8889H17.6929C17.9119 18.8889 18.1133 18.8178 18.2971 18.6756C18.481 18.5333 18.5724 18.3763 18.5714 18.2044V5.55556H12.8571Z" fill="#464540"/>
</svg>
