<svg width="22" height="22" viewBox="0 0 22 22" fill="none" xmlns="http://www.w3.org/2000/svg">
<path d="M18.6714 8.38983L19.5983 7.46282C20.3357 6.72537 20.75 5.72518 20.75 4.68228C20.75 3.63937 20.3357 2.63918 19.5983 1.90174C18.8609 1.16429 17.8608 0.75 16.8179 0.75C15.7751 0.75 14.7749 1.16429 14.0375 1.90174L13.1106 2.82875L4.58886 11.3489C4.01188 11.9269 3.72289 12.2159 3.4749 12.5339C3.1823 12.9094 2.93118 13.3154 2.72592 13.7449C2.55293 14.1089 2.42394 14.4969 2.16594 15.2709L1.07198 18.552M18.6714 8.38983C18.6714 8.38983 16.7024 8.27383 14.9645 6.5358C13.2265 4.79878 13.1116 2.82875 13.1116 2.82875M18.6714 8.38983L10.1507 16.9099C9.57368 17.487 9.28469 17.776 8.9667 18.024C8.59124 18.3166 8.18523 18.5677 7.75574 18.773C7.39176 18.946 7.00477 19.075 6.2298 19.333L2.94892 20.427M2.94892 20.427L2.14695 20.695C1.96001 20.7577 1.75929 20.767 1.56735 20.7219C1.37542 20.6767 1.19988 20.579 1.06046 20.4395C0.921036 20.3001 0.823267 20.1245 0.778138 19.9326C0.733009 19.7407 0.74231 19.5399 0.804994 19.353L1.07298 18.551L2.94892 20.427Z" stroke="#464540" stroke-width="1.5"/>
</svg>
