<svg width="60" height="61" viewBox="0 0 60 61" fill="none" xmlns="http://www.w3.org/2000/svg">
<path d="M17.312 23.9999H41.312V-5.38826e-05H17.312V23.9999ZM-0.000144362 50.7199H3.04786V60.2719C2.91986 60.3199 2.71986 60.3599 2.44786 60.3919C2.19186 60.4399 1.91986 60.4639 1.63186 60.4639C1.05586 60.4639 0.639856 60.3599 0.383856 60.1519C0.127856 59.9279 -0.000144362 59.5599 -0.000144362 59.0479V50.7199ZM3.04786 54.1999H-0.000144362V45.7519C0.143856 45.7199 0.343856 45.6799 0.599856 45.6319C0.871856 45.5839 1.14386 45.5599 1.41586 45.5599C1.99186 45.5599 2.40786 45.6639 2.66386 45.8719C2.91986 46.0639 3.04786 46.4319 3.04786 46.9759V54.1999ZM9.16786 50.7199H12.1919V60.2719C12.0639 60.3199 11.8639 60.3599 11.5919 60.3919C11.3359 60.4399 11.0719 60.4639 10.7999 60.4639C10.2079 60.4639 9.78386 60.3599 9.52786 60.1519C9.28786 59.9279 9.16786 59.5599 9.16786 59.0479V50.7199ZM12.1919 54.1999H9.16786V45.7519C9.29586 45.7199 9.48786 45.6799 9.74386 45.6319C10.0159 45.5839 10.2879 45.5599 10.5599 45.5599C11.1359 45.5599 11.5519 45.6639 11.8079 45.8719C12.0639 46.0799 12.1919 46.4559 12.1919 46.9999V54.1999ZM10.8479 54.1999H1.48786V51.7759H10.8479V54.1999ZM26.7379 54.6319C26.7379 55.8639 26.4979 56.9359 26.0179 57.8479C25.5379 58.7439 24.8579 59.4399 23.9779 59.9359C23.1139 60.4159 22.0899 60.6559 20.9059 60.6559C19.7219 60.6559 18.6899 60.4159 17.8099 59.9359C16.9299 59.4399 16.2419 58.7439 15.7459 57.8479C15.2659 56.9519 15.0259 55.8799 15.0259 54.6319C15.0259 53.3999 15.2739 52.3359 15.7699 51.4399C16.2659 50.5439 16.9539 49.8559 17.8339 49.3759C18.7139 48.8799 19.7379 48.6319 20.9059 48.6319C22.0739 48.6319 23.0899 48.8799 23.9539 49.3759C24.8339 49.8559 25.5139 50.5519 25.9939 51.4639C26.4899 52.3599 26.7379 53.4159 26.7379 54.6319ZM20.9059 50.9839C20.0259 50.9839 19.3299 51.3039 18.8179 51.9439C18.3219 52.5839 18.0739 53.4799 18.0739 54.6319C18.0739 55.8159 18.3219 56.7279 18.8179 57.3679C19.3139 57.9919 20.0099 58.3039 20.9059 58.3039C21.7859 58.3039 22.4739 57.9839 22.9699 57.3439C23.4659 56.7039 23.7139 55.7999 23.7139 54.6319C23.7139 53.4959 23.4659 52.6079 22.9699 51.9679C22.4739 51.3119 21.7859 50.9839 20.9059 50.9839ZM39.178 52.4719V55.2079H36.226V52.8079C36.226 52.1839 36.034 51.7279 35.65 51.4399C35.282 51.1359 34.81 50.9839 34.234 50.9839C33.818 50.9839 33.434 51.0479 33.082 51.1759C32.746 51.2879 32.458 51.4239 32.218 51.5839V55.2079H29.266V51.3919C29.266 51.0079 29.346 50.6959 29.506 50.4559C29.666 50.1999 29.906 49.9679 30.226 49.7599C30.722 49.4239 31.33 49.1519 32.05 48.9439C32.786 48.7359 33.546 48.6319 34.33 48.6319C35.114 48.6319 35.834 48.7519 36.49 48.9919C37.146 49.2319 37.682 49.5839 38.098 50.0479C38.21 50.1439 38.314 50.2399 38.41 50.3359C38.506 50.4319 38.586 50.5439 38.65 50.6719C38.794 50.9119 38.914 51.1919 39.01 51.5119C39.122 51.8159 39.178 52.1359 39.178 52.4719ZM46.114 52.7119V55.2079H43.162V52.8079C43.162 52.1839 42.986 51.7279 42.634 51.4399C42.282 51.1359 41.81 50.9839 41.218 50.9839C40.786 50.9839 40.362 51.0719 39.946 51.2479C39.546 51.4239 39.202 51.6559 38.914 51.9439L37.426 50.1439C37.922 49.7279 38.506 49.3759 39.178 49.0879C39.85 48.7839 40.65 48.6319 41.578 48.6319C42.426 48.6319 43.194 48.7679 43.882 49.0399C44.57 49.3119 45.114 49.7519 45.514 50.3599C45.914 50.9679 46.114 51.7519 46.114 52.7119ZM29.266 54.0559H32.218V60.2719C32.09 60.3199 31.906 60.3599 31.666 60.3919C31.426 60.4399 31.162 60.4639 30.874 60.4639C30.33 60.4639 29.922 60.3679 29.65 60.1759C29.394 59.9679 29.266 59.6079 29.266 59.0959V54.0559ZM36.226 54.0559H39.178V60.2719C39.05 60.3199 38.858 60.3599 38.602 60.3919C38.362 60.4399 38.106 60.4639 37.834 60.4639C37.274 60.4639 36.866 60.3679 36.61 60.1759C36.354 59.9679 36.226 59.6079 36.226 59.0959V54.0559ZM43.162 54.0559H46.114V60.2719C46.002 60.3199 45.818 60.3599 45.562 60.3919C45.322 60.4399 45.066 60.4639 44.794 60.4639C44.234 60.4639 43.818 60.3679 43.546 60.1759C43.29 59.9679 43.162 59.6079 43.162 59.0959V54.0559ZM50.5073 56.1439L50.3873 54.0799L56.8193 53.1199C56.7713 52.5119 56.5393 51.9839 56.1233 51.5359C55.7073 51.0879 55.0993 50.8639 54.2993 50.8639C53.4833 50.8639 52.8033 51.1519 52.2593 51.7279C51.7153 52.2879 51.4353 53.0959 51.4193 54.1519L51.4913 55.3999C51.6353 56.4239 52.0273 57.1759 52.6673 57.6559C53.3233 58.1359 54.1473 58.3759 55.1393 58.3759C55.8113 58.3759 56.4353 58.2799 57.0113 58.0879C57.5873 57.8799 58.0433 57.6559 58.3793 57.4159C58.6033 57.5599 58.7793 57.7439 58.9073 57.9679C59.0513 58.1759 59.1233 58.4079 59.1233 58.6639C59.1233 59.0799 58.9393 59.4399 58.5713 59.7439C58.2033 60.0319 57.7073 60.2559 57.0833 60.4159C56.4593 60.5759 55.7473 60.6559 54.9473 60.6559C53.7153 60.6559 52.6193 60.4319 51.6593 59.9839C50.7153 59.5199 49.9713 58.8319 49.4273 57.9199C48.8993 57.0079 48.6353 55.8719 48.6353 54.5119C48.6353 53.5359 48.7873 52.6799 49.0913 51.9439C49.3953 51.2079 49.8033 50.5999 50.3153 50.1199C50.8433 49.6239 51.4513 49.2559 52.1393 49.0159C52.8273 48.7599 53.5473 48.6319 54.2993 48.6319C55.3553 48.6319 56.2753 48.8479 57.0593 49.2799C57.8593 49.6959 58.4833 50.2799 58.9313 51.0319C59.3953 51.7839 59.6273 52.6479 59.6273 53.6239C59.6273 54.0719 59.5073 54.4079 59.2673 54.6319C59.0433 54.8399 58.7233 54.9679 58.3073 55.0159L50.5073 56.1439Z" fill="black"/>
</svg>
