<svg width="70" height="61" viewBox="0 0 70 61" fill="none" xmlns="http://www.w3.org/2000/svg">
<path d="M22.7783 23.9999H46.7783V-5.38826e-05H22.7783V23.9999ZM4.96807 58.2079C5.89607 58.2079 6.58407 58.0239 7.03207 57.6559C7.48007 57.2719 7.70407 56.7999 7.70407 56.2399C7.70407 55.7439 7.52807 55.3439 7.17607 55.0399C6.84007 54.7199 6.32007 54.4559 5.61607 54.2479L4.05607 53.7679C3.25607 53.4959 2.55207 53.1919 1.94407 52.8559C1.35207 52.5199 0.88807 52.0879 0.55207 51.5599C0.23207 51.0159 0.0720703 50.3519 0.0720703 49.5679C0.0720703 48.2719 0.55207 47.2479 1.51207 46.4959C2.48807 45.7439 3.81607 45.3679 5.49607 45.3679C6.39207 45.3679 7.18407 45.4639 7.87207 45.6559C8.57607 45.8319 9.12807 46.0799 9.52807 46.3999C9.94407 46.7199 10.1521 47.0959 10.1521 47.5279C10.1521 47.8319 10.0721 48.1039 9.91207 48.3439C9.76807 48.5679 9.58407 48.7519 9.36007 48.8959C8.99207 48.6239 8.48807 48.3919 7.84807 48.1999C7.20807 47.9919 6.51207 47.8879 5.76007 47.8879C4.92807 47.8879 4.28807 48.0399 3.84007 48.3439C3.39207 48.6479 3.16807 49.0559 3.16807 49.5679C3.16807 49.9839 3.32007 50.3199 3.62407 50.5759C3.94407 50.8319 4.42407 51.0559 5.06407 51.2479L6.45607 51.6559C7.83207 52.0719 8.90407 52.6399 9.67207 53.3599C10.4401 54.0639 10.8241 55.0319 10.8241 56.2639C10.8241 57.5759 10.3201 58.6399 9.31207 59.4559C8.32007 60.2719 6.89607 60.6799 5.04007 60.6799C4.06407 60.6799 3.20007 60.5759 2.44807 60.3679C1.69607 60.1599 1.09607 59.8719 0.64807 59.5039C0.21607 59.1359 7.03633e-05 58.7199 7.03633e-05 58.2559C7.03633e-05 57.9039 0.11207 57.5999 0.33607 57.3439C0.56007 57.0879 0.80007 56.8959 1.05607 56.7679C1.47207 57.1199 2.00807 57.4479 2.66407 57.7519C3.32007 58.0559 4.08807 58.2079 4.96807 58.2079ZM19.1776 51.0079C18.2176 51.0079 17.4096 51.3199 16.7536 51.9439C16.1136 52.5679 15.7936 53.4799 15.7936 54.6799C15.7936 55.8639 16.1056 56.7599 16.7296 57.3679C17.3536 57.9759 18.1616 58.2799 19.1536 58.2799C19.7456 58.2799 20.2416 58.2079 20.6416 58.0639C21.0576 57.9039 21.4176 57.7359 21.7216 57.5599C21.9616 57.7039 22.1456 57.8799 22.2736 58.0879C22.4176 58.2799 22.4896 58.5199 22.4896 58.8079C22.4896 59.3519 22.1616 59.7999 21.5056 60.1519C20.8496 60.4879 19.9856 60.6559 18.9136 60.6559C17.6976 60.6559 16.6256 60.4399 15.6976 60.0079C14.7856 59.5599 14.0656 58.8879 13.5376 57.9919C13.0256 57.0959 12.7696 55.9919 12.7696 54.6799C12.7696 53.3199 13.0416 52.1919 13.5856 51.2959C14.1456 50.3999 14.8816 49.7359 15.7936 49.3039C16.7216 48.8559 17.7376 48.6319 18.8416 48.6319C19.8976 48.6319 20.7456 48.8159 21.3856 49.1839C22.0256 49.5519 22.3456 50.0079 22.3456 50.5519C22.3456 50.7919 22.2816 51.0159 22.1536 51.2239C22.0256 51.4319 21.8736 51.5999 21.6976 51.7279C21.3776 51.5359 21.0176 51.3679 20.6176 51.2239C20.2176 51.0799 19.7376 51.0079 19.1776 51.0079ZM35.4831 55.4719H32.5311V53.3119C32.5311 52.4959 32.3071 51.9039 31.8591 51.5359C31.4271 51.1679 30.8751 50.9839 30.2031 50.9839C29.6591 50.9839 29.1551 51.0879 28.6911 51.2959C28.2431 51.5039 27.8511 51.7439 27.5151 52.0159L27.3471 49.6159C27.7151 49.3919 28.1871 49.1759 28.7631 48.9679C29.3391 48.7439 29.9871 48.6319 30.7071 48.6319C32.1471 48.6319 33.2991 49.0079 34.1631 49.7599C35.0431 50.5119 35.4831 51.6479 35.4831 53.1679V55.4719ZM24.9951 53.9839H27.9471V60.2719C27.8191 60.3199 27.6351 60.3599 27.3951 60.3919C27.1551 60.4399 26.8911 60.4639 26.6031 60.4639C26.0591 60.4639 25.6511 60.3679 25.3791 60.1759C25.1231 59.9679 24.9951 59.6079 24.9951 59.0959V53.9839ZM32.5311 54.0079H35.4831V60.2719C35.3551 60.3199 35.1631 60.3599 34.9071 60.3919C34.6671 60.4399 34.4111 60.4639 34.1391 60.4639C33.5791 60.4639 33.1711 60.3679 32.9151 60.1759C32.6591 59.9679 32.5311 59.6079 32.5311 59.0959V54.0079ZM27.9471 55.4959H24.9951V44.7199C25.1231 44.6879 25.3071 44.6479 25.5471 44.5999C25.7871 44.5519 26.0511 44.5279 26.3391 44.5279C26.8991 44.5279 27.3071 44.6319 27.5631 44.8399C27.8191 45.0319 27.9471 45.3839 27.9471 45.8959V55.4959ZM49.7003 54.6319C49.7003 55.8639 49.4603 56.9359 48.9803 57.8479C48.5003 58.7439 47.8203 59.4399 46.9403 59.9359C46.0763 60.4159 45.0523 60.6559 43.8683 60.6559C42.6843 60.6559 41.6523 60.4159 40.7723 59.9359C39.8923 59.4399 39.2043 58.7439 38.7083 57.8479C38.2283 56.9519 37.9883 55.8799 37.9883 54.6319C37.9883 53.3999 38.2363 52.3359 38.7323 51.4399C39.2283 50.5439 39.9163 49.8559 40.7963 49.3759C41.6763 48.8799 42.7003 48.6319 43.8683 48.6319C45.0363 48.6319 46.0523 48.8799 46.9163 49.3759C47.7963 49.8559 48.4763 50.5519 48.9563 51.4639C49.4523 52.3599 49.7003 53.4159 49.7003 54.6319ZM43.8683 50.9839C42.9883 50.9839 42.2923 51.3039 41.7803 51.9439C41.2843 52.5839 41.0363 53.4799 41.0363 54.6319C41.0363 55.8159 41.2843 56.7279 41.7803 57.3679C42.2763 57.9919 42.9723 58.3039 43.8683 58.3039C44.7483 58.3039 45.4363 57.9839 45.9323 57.3439C46.4283 56.7039 46.6763 55.7999 46.6763 54.6319C46.6763 53.4959 46.4283 52.6079 45.9323 51.9679C45.4363 51.3119 44.7483 50.9839 43.8683 50.9839ZM63.3644 54.6319C63.3644 55.8639 63.1244 56.9359 62.6444 57.8479C62.1644 58.7439 61.4844 59.4399 60.6044 59.9359C59.7404 60.4159 58.7164 60.6559 57.5324 60.6559C56.3484 60.6559 55.3164 60.4159 54.4364 59.9359C53.5564 59.4399 52.8684 58.7439 52.3724 57.8479C51.8924 56.9519 51.6524 55.8799 51.6524 54.6319C51.6524 53.3999 51.9004 52.3359 52.3964 51.4399C52.8924 50.5439 53.5804 49.8559 54.4604 49.3759C55.3404 48.8799 56.3644 48.6319 57.5324 48.6319C58.7004 48.6319 59.7164 48.8799 60.5804 49.3759C61.4604 49.8559 62.1404 50.5519 62.6204 51.4639C63.1164 52.3599 63.3644 53.4159 63.3644 54.6319ZM57.5324 50.9839C56.6524 50.9839 55.9564 51.3039 55.4444 51.9439C54.9484 52.5839 54.7004 53.4799 54.7004 54.6319C54.7004 55.8159 54.9484 56.7279 55.4444 57.3679C55.9404 57.9919 56.6364 58.3039 57.5324 58.3039C58.4124 58.3039 59.1004 57.9839 59.5964 57.3439C60.0924 56.7039 60.3404 55.7999 60.3404 54.6319C60.3404 53.4959 60.0924 52.6079 59.5964 51.9679C59.1004 51.3119 58.4124 50.9839 57.5324 50.9839ZM66.0604 53.9839L69.0124 54.1279V60.2719C68.8844 60.3199 68.7004 60.3599 68.4604 60.3919C68.2204 60.4399 67.9564 60.4639 67.6684 60.4639C67.1244 60.4639 66.7164 60.3679 66.4444 60.1759C66.1884 59.9679 66.0604 59.6079 66.0604 59.0959V53.9839ZM69.0124 55.6399L66.0604 55.4959V44.7199C66.1724 44.6879 66.3484 44.6479 66.5884 44.5999C66.8444 44.5519 67.1084 44.5279 67.3804 44.5279C67.9564 44.5279 68.3724 44.6319 68.6284 44.8399C68.8844 45.0319 69.0124 45.3839 69.0124 45.8959V55.6399Z" fill="black"/>
</svg>
