<svg width="20" height="20" viewBox="0 0 20 20" fill="none" xmlns="http://www.w3.org/2000/svg">
<path d="M7.08341 14.1569C5.10748 14.1569 3.43273 13.4709 2.05914 12.0988C0.686381 10.7276 0 9.05415 0 7.07844C0 5.10274 0.686381 3.42887 2.05914 2.05683C3.43191 0.684786 5.10666 -0.000822813 7.08341 7.4105e-07C9.06015 0.000824295 10.7345 0.686844 12.1064 2.05806C13.4784 3.42928 14.1648 5.10274 14.1656 7.07844C14.1656 7.93659 14.0135 8.76714 13.7095 9.57011C13.4054 10.3731 13.0058 11.0599 12.5106 11.6306L19.814 18.9277C19.9294 19.043 19.9912 19.1851 19.9994 19.3539C20.0068 19.5211 19.945 19.6706 19.814 19.8023C19.6822 19.9341 19.5363 20 19.3765 20C19.2166 20 19.0708 19.9341 18.9389 19.8023L11.6368 12.504C11.0188 13.0303 10.3081 13.4375 9.50469 13.7258C8.7013 14.014 7.8938 14.1581 7.08217 14.1581M7.08217 12.9228C8.7219 12.9228 10.1066 12.3587 11.2363 11.2304C12.3652 10.1021 12.9296 8.71814 12.9296 7.07844C12.9296 5.43875 12.3656 4.05518 11.2375 2.92773C10.1095 1.80029 8.7252 1.23615 7.08464 1.23533C5.44408 1.23533 4.05937 1.79947 2.93051 2.92773C1.80165 4.056 1.2368 5.43957 1.23598 7.07844C1.23516 8.71732 1.79959 10.1009 2.92927 11.2292C4.05896 12.3574 5.44326 12.9216 7.08217 12.9216" fill="#464540"/>
</svg>
