<svg width="34" height="34" viewBox="0 0 34 34" fill="none" xmlns="http://www.w3.org/2000/svg">
<path d="M11.4167 1.63889V31.8611M0.75 12.1278C0.75 8.14555 0.75 6.15444 1.52511 4.63267C2.20687 3.29468 3.29468 2.20687 4.63267 1.52511C6.15444 0.75 8.14555 0.75 12.1278 0.75H21.3722C25.3544 0.75 27.3456 0.75 28.8673 1.52511C30.2053 2.20687 31.2931 3.29468 31.9749 4.63267C32.75 6.15444 32.75 8.14555 32.75 12.1278V21.3722C32.75 25.3544 32.75 27.3456 31.9749 28.8673C31.2931 30.2053 30.2053 31.2931 28.8673 31.9749C27.3456 32.75 25.3544 32.75 21.3722 32.75H12.1278C8.14555 32.75 6.15444 32.75 4.63267 31.9749C3.29468 31.2931 2.20687 30.2053 1.52511 28.8673C0.75 27.3456 0.75 25.3544 0.75 21.3722V12.1278Z" stroke="#464540" stroke-width="1.5" stroke-linecap="round" stroke-linejoin="round"/>
</svg>
