<svg width="54" height="41" viewBox="0 0 54 41" fill="none" xmlns="http://www.w3.org/2000/svg">
<path d="M28.1182 10.0087C27.8163 9.92955 27.6443 9.65048 27.7344 9.38501C28.7831 6.28615 32.0495 4.01086 35.936 4.01086C36.251 4.01086 36.5064 4.23549 36.5064 4.51242C36.5064 4.78934 36.251 5.01397 35.936 5.01397C32.6786 5.01397 29.7557 6.92883 28.8276 9.67084C28.7383 9.93594 28.4214 10.0882 28.1182 10.0087L28.1182 10.0087Z" fill="#6E9E78"/>
<path d="M43.9215 29.0885H40.4991C40.1842 29.0885 39.9287 28.8639 39.9287 28.587C39.9287 28.31 40.1842 28.0854 40.4991 28.0854H43.9215C48.6391 28.0854 52.4776 24.7103 52.4776 20.5622C52.4776 16.414 48.6391 13.0389 43.9215 13.0389H43.8392C43.6738 13.0389 43.5165 12.9759 43.4082 12.8659C43.2998 12.7559 43.2509 12.6101 43.2745 12.4661C43.3255 12.1537 43.3511 11.8399 43.3511 11.5343C43.3511 7.93928 40.0244 5.01413 35.9358 5.01413C34.3452 5.01413 32.8283 5.45119 31.549 6.27838C31.2678 6.46001 30.8685 6.37941 30.706 6.10749C27.0827 0.0409198 17.6191 -0.773759 12.7127 4.50363C10.6458 6.72691 9.83375 9.61905 10.4845 12.4378C10.5562 12.7491 10.2853 13.0393 9.92549 13.0393H9.69692C4.97931 13.0393 1.14086 16.4144 1.14086 20.5626C1.14086 24.7107 4.97931 28.0858 9.69692 28.0858H13.1193C13.4342 28.0858 13.6897 28.3104 13.6897 28.5873C13.6897 28.8643 13.4343 29.0889 13.1193 29.0889H9.69692C4.35016 29.0889 0 25.2639 0 20.5625C0 15.9931 4.10932 12.2515 9.24915 12.0451C8.76635 9.12071 9.68959 6.17088 11.8294 3.86882C17.0824 -1.78184 27.1494 -1.14848 31.4049 5.15242C32.7625 4.40403 34.316 4.01143 35.9356 4.01143C40.8892 4.01143 44.8144 7.71861 44.4709 12.0498C49.5634 12.3009 53.6182 16.0228 53.6182 20.5622C53.6182 25.2639 49.2683 29.0885 43.9215 29.0885Z" fill="#6E9E78"/>
<path d="M26.7327 40.8426C18.8696 40.8426 12.4724 35.2178 12.4724 28.3038C12.4724 21.3899 18.8695 15.7649 26.7327 15.7649C34.5959 15.7649 40.993 21.3898 40.993 28.3038C40.993 35.2177 34.5959 40.8426 26.7327 40.8426ZM26.7327 16.7682C19.4988 16.7682 13.6135 21.9432 13.6135 28.3038C13.6135 34.6645 19.4989 39.8393 26.7327 39.8393C33.9665 39.8393 39.8519 34.6644 39.8519 28.3038C39.8519 21.9431 33.9665 16.7682 26.7327 16.7682Z" fill="#6E9E78"/>
<path d="M26.9938 33.7186C26.7632 33.7186 26.5762 33.5541 26.5762 33.3514V23.8043C26.5762 23.6016 26.7632 23.4371 26.9938 23.4371C27.2244 23.4371 27.4114 23.6016 27.4114 23.8043V33.3514C27.4114 33.5544 27.2244 33.7186 26.9938 33.7186Z" fill="#6E9E78"/>
<path d="M30.3344 27.1099C30.2276 27.1099 30.1205 27.074 30.0391 27.0024L26.9936 24.3245L23.9481 27.0024C23.7852 27.1459 23.5206 27.1459 23.3575 27.0024C23.1943 26.8589 23.1943 26.6266 23.3575 26.4831L26.6983 23.5456C26.8611 23.4021 27.1257 23.4021 27.2889 23.5456L30.6296 26.4831C30.7928 26.6266 30.7928 26.8589 30.6296 27.0024C30.5482 27.0743 30.4411 27.1099 30.3343 27.1099H30.3344Z" fill="#6E9E78"/>
</svg>
