<svg width="154" height="23" viewBox="0 0 154 23" fill="none" xmlns="http://www.w3.org/2000/svg">
<path d="M82.076 0C84.8991 0.217156 86.5869 0.615674 88.826 2.375C91.2968 5.58701 91.2114 8.67016 91.201 12.5625C91.2036 13.5332 91.2062 14.5038 91.2089 15.5039C91.076 18 91.076 18 90.076 20C88.756 19.67 87.436 19.34 86.076 19C86.076 18.01 86.076 17.02 86.076 16C84.756 16 83.436 16 82.076 16C81.746 17.32 81.416 18.64 81.076 20C79.756 19.67 78.436 19.34 77.076 19C76.5159 7.34025 76.5159 7.34025 80.076 2C80.736 1.34 81.396 0.68 82.076 0Z" fill="#CB404B"/>
<path d="M122.076 0C125.653 0.0966625 126.871 0.789258 129.389 3.375C131.673 8.28235 131.608 12.6636 131.076 18C130.746 18.66 130.416 19.32 130.076 20C128.756 19.67 127.436 19.34 126.076 19C126.076 18.01 126.076 17.02 126.076 16C124.756 16 123.436 16 122.076 16C121.746 17.32 121.416 18.64 121.076 20C119.756 19.67 118.436 19.34 117.076 19C116.387 7.17169 116.387 7.17169 119.014 3.3125C121.076 1 121.076 1 122.076 0Z" fill="#CC414C"/>
<path d="M2.07603 1C3.75146 1.28605 5.41989 1.61781 7.07603 2C7.07603 4.97 7.07603 7.94 7.07603 11C7.73603 11 8.39603 11 9.07603 11C9.07603 8.03 9.07603 5.06 9.07603 2C10.726 1.67 12.376 1.34 14.076 1C14.2703 3.79135 14.4567 6.58284 14.6385 9.375C14.6946 10.1691 14.7507 10.9631 14.8085 11.7812C15.1893 17.7734 15.1893 17.7734 14.076 20C12.756 19.67 11.436 19.34 10.076 19C10.076 17.68 10.076 16.36 10.076 15C8.75603 15 7.43603 15 6.07603 15C5.74603 16.65 5.41603 18.3 5.07603 20C3.75603 19.34 2.43603 18.68 1.07603 18C1.04919 15.3541 1.02927 12.7085 1.01353 10.0625C1.00515 9.30775 0.996776 8.55301 0.988143 7.77539C0.979509 5.85006 1.02379 3.92464 1.07603 2C1.40603 1.67 1.73603 1.34 2.07603 1Z" fill="#CB3B48"/>
<path d="M139.076 1C140.751 1.28605 142.42 1.61781 144.076 2C144.076 4.97 144.076 7.94 144.076 11C144.736 11 145.396 11 146.076 11C146.076 8.03 146.076 5.06 146.076 2C147.726 1.67 149.376 1.34 151.076 1C151.406 6.61 151.736 12.22 152.076 18C150.096 18.99 150.096 18.99 148.076 20C147.746 18.35 147.416 16.7 147.076 15C145.756 15 144.436 15 143.076 15C142.746 16.65 142.416 18.3 142.076 20C140.756 19.34 139.436 18.68 138.076 18C138.049 15.3541 138.029 12.7085 138.014 10.0625C138.005 9.30775 137.997 8.55301 137.988 7.77539C137.98 5.85006 138.024 3.92464 138.076 2C138.406 1.67 138.736 1.34 139.076 1Z" fill="#CB3B48"/>
<path d="M37.076 0C39.1385 0.25 39.1385 0.25 41.076 1C41.406 1.66 41.736 2.32 42.076 3C43.066 2.34 44.056 1.68 45.076 1C47.2635 1.375 47.2635 1.375 49.076 2C48.416 2 47.7561 2 47.076 2C46.484 5.0119 46.0174 7.92482 46.076 11C47.9096 13.3345 47.9096 13.3345 50.076 15C50.076 16.32 50.076 17.64 50.076 19C47.701 18.75 47.701 18.75 45.076 18C43.7635 15.9375 43.7635 15.9375 43.076 14C42.416 14 41.756 14 41.076 14C41.076 15.65 41.076 17.3 41.076 19C39.756 19.33 38.436 19.66 37.076 20C34.7559 16.3357 34.8082 13.1456 34.826 8.875C34.8209 7.63492 34.8157 6.39484 34.8104 5.11719C35.076 2 35.076 2 37.076 0Z" fill="#CC404B"/>
<path d="M63.0761 1C63.0761 1.66 63.0761 2.32 63.0761 3C64.3961 3.33 65.7161 3.66 67.0761 4C67.4061 5.98 67.7361 7.96 68.0761 10C68.7361 10 69.3961 10 70.0761 10C70.0761 12.97 70.0761 15.94 70.0761 19C68.7561 19.33 67.4361 19.66 66.0761 20C65.7461 19.01 65.4161 18.02 65.0761 17C64.0861 17 63.0961 17 62.0761 17C61.7461 17.99 61.4161 18.98 61.0761 20C59.4261 19.67 57.7761 19.34 56.0761 19C55.5098 7.2123 55.5098 7.2123 59.0761 2C61.0761 1 61.0761 1 63.0761 1Z" fill="#CC444E"/>
<path d="M24.076 0C26.1385 0.25 26.1385 0.25 28.076 1C29.7852 4.41827 29.2606 8.23355 29.2635 12C29.2758 12.8327 29.288 13.6655 29.3007 14.5234C29.3026 15.3201 29.3045 16.1167 29.3065 16.9375C29.3106 17.6684 29.3147 18.3993 29.319 19.1523C29.076 21 29.076 21 27.076 23C25.0135 22.75 25.0135 22.75 23.076 22C21.3669 18.5817 21.8915 14.7665 21.8885 11C21.8763 10.1673 21.8641 9.33453 21.8514 8.47656C21.8495 7.67992 21.8476 6.88328 21.8456 6.0625C21.8415 5.3316 21.8374 4.6007 21.8331 3.84766C22.076 2 22.076 2 24.076 0Z" fill="#D5BDAD"/>
<path d="M98.076 0C100.014 0.5625 100.014 0.5625 102.076 2C102.826 5.625 102.826 5.625 103.076 9C103.736 8.67 104.396 8.34 105.076 8C105.807 5.68594 106.477 3.35171 107.076 1C108.066 1.33 109.056 1.66 110.076 2C109.643 8.81987 108.168 13.9164 105.076 20C104.086 19.67 103.096 19.34 102.076 19C101.387 16.6733 100.721 14.3393 100.076 12C99.5398 11.5256 99.0035 11.0513 98.451 10.5625C96.6828 8.55316 96.8541 7.51307 96.826 4.875C97.076 1 97.076 1 98.076 0Z" fill="#CA3642"/>
<path d="M150.076 2C151.066 2.33 152.056 2.66 153.076 3C153.103 5.97923 153.123 8.95821 153.139 11.9375C153.147 12.7876 153.155 13.6378 153.164 14.5137C153.169 15.727 153.169 15.727 153.174 16.9648C153.182 18.0881 153.182 18.0881 153.19 19.2341C153.076 21 153.076 21 152.076 22C150.076 22.0408 148.076 22.0425 146.076 22C146.076 20.68 146.076 19.36 146.076 18C145.416 18 144.756 18 144.076 18C143.746 19.32 143.416 20.64 143.076 22C141.756 22 140.436 22 139.076 22C137.076 20 137.076 20 136.881 16.3047C136.894 14.828 136.918 13.3514 136.951 11.875C136.965 10.7438 136.965 10.7438 136.978 9.58984C137.002 7.72643 137.038 5.86317 137.076 4C137.406 4 137.736 4 138.076 4C138.406 8.62 138.736 13.24 139.076 18C140.066 18.33 141.056 18.66 142.076 19C142.406 17.68 142.736 16.36 143.076 15C144.396 15 145.716 15 147.076 15C147.406 16.32 147.736 17.64 148.076 19C149.066 18.67 150.056 18.34 151.076 18C151.174 12.5386 150.849 7.40744 150.076 2Z" fill="#D4C3B0"/>
<path d="M13.076 2C14.066 2.33 15.056 2.66 16.076 3C16.103 5.60424 16.1229 8.20819 16.1385 10.8125C16.1469 11.5505 16.1553 12.2885 16.1639 13.0488C16.1786 16.2992 16.1113 18.894 15.076 22C13.426 22 11.776 22 10.076 22C9.74603 20.68 9.41603 19.36 9.07603 18C8.41603 18 7.75603 18 7.07603 18C6.74603 19.32 6.41603 20.64 6.07603 22C1.20103 21.125 1.20103 21.125 0.0760312 20C0.00283496 17.3035 -0.0163942 14.6331 0.0135312 11.9375C0.0180429 11.1789 0.0225546 10.4203 0.027203 9.63867C0.0390244 7.75908 0.0569604 5.87953 0.0760312 4C0.406031 4 0.736031 4 1.07603 4C1.40603 8.62 1.73603 13.24 2.07603 18C3.06603 18.33 4.05603 18.66 5.07603 19C5.40603 17.68 5.73603 16.36 6.07603 15C7.39603 15 8.71603 15 10.076 15C10.1792 15.6394 10.2823 16.2788 10.3885 16.9375C10.6154 17.6181 10.8423 18.2987 11.076 19C12.066 19.33 13.056 19.66 14.076 20C14.1887 13.8895 13.9721 8.0483 13.076 2Z" fill="#D2C5B0"/>
<path d="M62.076 0C64.326 0.0625 64.326 0.0625 67.076 1C71.6046 6.38527 71.4911 11.3357 71.412 18.207C71.076 21 71.076 21 69.076 23C66.951 22.625 66.951 22.625 65.076 22C65.076 21.01 65.076 20.02 65.076 19C64.0861 19 63.096 19 62.076 19C61.746 20.32 61.416 21.64 61.076 23C59.426 22.67 57.776 22.34 56.076 22C56.406 21.01 56.736 20.02 57.076 19C58.396 19.33 59.716 19.66 61.076 20C61.406 18.68 61.736 17.36 62.076 16C63.396 16.33 64.7161 16.66 66.076 17C66.076 17.99 66.076 18.98 66.076 20C67.066 19.67 68.056 19.34 69.076 19C69.571 14.545 69.571 14.545 70.076 10C69.416 10 68.7561 10 68.076 10C67.6739 8.54594 67.6739 8.54594 67.2635 7.0625C66.8717 6.05188 66.4798 5.04125 66.076 4C65.0861 3.67 64.0961 3.34 63.076 3C62.746 2.01 62.416 1.02 62.076 0Z" fill="#CCD0B5"/>
<path d="M23.076 1C24.066 1 25.056 1 26.076 1C26.076 3.97 26.076 6.94 26.076 10C26.736 10 27.396 10 28.076 10C28.076 12.97 28.076 15.94 28.076 19C26.756 19 25.436 19 24.076 19C23.076 18 23.076 18 22.9784 14.1836C22.9851 12.6015 22.997 11.0195 23.0135 9.4375C23.0181 8.63119 23.0226 7.82488 23.0272 6.99414C23.039 4.99606 23.057 2.99802 23.076 1Z" fill="#C93340"/>
<path d="M76.076 11C76.406 11 76.736 11 77.076 11C77.406 13.64 77.736 16.28 78.076 19C79.066 19 80.056 19 81.076 19C81.406 18.01 81.736 17.02 82.076 16C83.396 16 84.716 16 86.076 16C86.406 16.99 86.736 17.98 87.076 19C88.066 19.33 89.056 19.66 90.076 20C90.406 19.34 90.736 18.68 91.076 18C91.076 19.32 91.076 20.64 91.076 22C89.426 22 87.776 22 86.076 22C85.746 21.01 85.416 20.02 85.076 19C84.4985 19.6806 83.921 20.3612 83.326 21.0625C82.5835 21.7019 81.841 22.3413 81.076 23C78.8576 22.8098 77.6608 22.5848 76.076 21C76.004 19.3139 75.9922 17.625 76.0135 15.9375C76.0225 15.0184 76.0316 14.0993 76.0409 13.1523C76.0525 12.4421 76.0641 11.7318 76.076 11Z" fill="#D1CEB6"/>
<path d="M116.076 11C116.406 11 116.736 11 117.076 11C117.406 13.64 117.736 16.28 118.076 19C119.066 19 120.056 19 121.076 19C121.406 18.01 121.736 17.02 122.076 16C123.396 16 124.716 16 126.076 16C126.406 16.99 126.736 17.98 127.076 19C128.066 19.33 129.056 19.66 130.076 20C130.406 19.34 130.736 18.68 131.076 18C131.076 19.32 131.076 20.64 131.076 22C129.426 22 127.776 22 126.076 22C125.746 21.01 125.416 20.02 125.076 19C124.416 19 123.756 19 123.076 19C122.416 20.32 121.756 21.64 121.076 23C119.139 22.625 119.139 22.625 117.076 22C115.873 19.5945 115.975 18.05 116.014 15.375C116.023 14.5577 116.032 13.7405 116.041 12.8984C116.053 12.272 116.064 11.6455 116.076 11Z" fill="#CED2B8"/>
<path d="M96.076 3C96.406 3 96.736 3 97.076 3C97.3442 4.09312 97.6123 5.18625 97.8885 6.3125C98.7324 9.894 98.7324 9.894 100.639 11.5625C102.805 13.7291 102.747 16.0429 103.076 19C103.736 19 104.396 19 105.076 19C105.736 17.68 106.396 16.36 107.076 15C107.076 16.98 107.076 18.96 107.076 21C105.42 21.3822 103.751 21.714 102.076 22C101.076 21 101.076 21 101.014 17.9375C101.034 16.9681 101.055 15.9987 101.076 15C100.437 14.7113 99.7973 14.4225 99.1385 14.125C97.076 13 97.076 13 96.076 11C95.9419 8.32764 96.0329 5.6775 96.076 3Z" fill="#D2C5B1"/>
<path d="M110.076 1C112.076 3 112.076 3 112.451 6.9375C112.383 10.6932 112.383 10.6932 110.076 13C109.086 13.495 109.086 13.495 108.076 14C108.076 11.4042 108.241 8.95203 108.514 6.375C108.595 5.57836 108.676 4.78172 108.76 3.96094C109.076 2 109.076 2 110.076 1Z" fill="#DE8F90"/>
<path d="M62.076 0C64.326 0.0625 64.326 0.0625 67.076 1C71.154 6.29027 71.6109 10.4485 71.076 17C70.746 17 70.416 17 70.076 17C70.076 14.69 70.076 12.38 70.076 10C69.416 10 68.756 10 68.076 10C67.8079 9.03063 67.5398 8.06125 67.2635 7.0625C66.8717 6.05188 66.4798 5.04125 66.076 4C65.086 3.67 64.096 3.34 63.076 3C62.746 2.01 62.416 1.02 62.076 0Z" fill="#DF9193"/>
<path d="M41.076 14C41.736 14 42.396 14 43.076 14C43.7567 14.9591 43.7567 14.9591 44.451 15.9375C46.2869 18.2676 47.2051 18.604 50.076 19C50.406 18.01 50.736 17.02 51.076 16C51.076 17.98 51.076 19.96 51.076 22C48.8885 22.3125 48.8885 22.3125 46.076 22C43.2635 19.6875 43.2635 19.6875 41.076 17C41.076 16.01 41.076 15.02 41.076 14Z" fill="#CCCDB3"/>
<path d="M24.076 0C26.0135 0.375 26.0135 0.375 28.076 1C29.5181 3.88416 29.17 6.41722 29.1385 9.625C29.1295 10.8135 29.1205 12.002 29.1112 13.2266C29.0996 14.1418 29.088 15.057 29.076 16C28.746 16 28.416 16 28.076 16C28.076 14.02 28.076 12.04 28.076 10C27.416 10 26.756 10 26.076 10C26.076 7.03 26.076 4.06 26.076 1C25.416 0.67 24.756 0.34 24.076 0Z" fill="#DB8184"/>
<path d="M50.076 1C49.6378 5.55737 49.2256 8.57653 46.076 12C44.6107 8.19011 45.524 5.67588 47.076 2C49.076 1 49.076 1 50.076 1Z" fill="#DABBAE"/>
<path d="M82.076 0C84.7243 0.357871 86.6314 0.682399 88.826 2.25C90.3937 4.44464 90.7182 6.35175 91.076 9C90.0861 9.495 90.0861 9.495 89.076 10C88.6223 9.03063 88.1686 8.06125 87.701 7.0625C86.4182 3.9292 86.4182 3.9292 84.076 3C84.076 2.34 84.076 1.68 84.076 1C83.416 0.67 82.756 0.34 82.076 0Z" fill="#DF9394"/>
<path d="M122.076 0C124.326 0.125 124.326 0.125 127.076 1C129.451 3.875 129.451 3.875 131.076 7C130.746 7.99 130.416 8.98 130.076 10C128.076 8 128.076 8 127.076 5.9375C126.23 3.83134 126.23 3.83134 124.076 3C124.076 2.34 124.076 1.68 124.076 1C123.416 0.67 122.756 0.34 122.076 0Z" fill="#DE9092"/>
<path d="M150.076 2C151.066 2.33 152.056 2.66 153.076 3C153.076 7.29 153.076 11.58 153.076 16C152.746 16 152.416 16 152.076 16C151.416 11.38 150.756 6.76 150.076 2Z" fill="#E1A0A0"/>
<path d="M35.0761 16C35.7361 17.32 36.3961 18.64 37.0761 20C38.3961 19.67 39.7161 19.34 41.0761 19C40.7461 20.32 40.4161 21.64 40.0761 23C36.2011 22.125 36.2011 22.125 35.0761 21C35.0354 19.3338 35.0333 17.6661 35.0761 16Z" fill="#CED9BD"/>
<path d="M13.076 2C14.066 2.33 15.056 2.66 16.076 3C16.076 6.3 16.076 9.6 16.076 13C13.5099 9.15075 13.5251 6.56507 13.076 2Z" fill="#E2A1A1"/>
<path d="M56.076 19C58.056 19 60.036 19 62.076 19C61.746 20.32 61.416 21.64 61.076 23C59.426 22.67 57.776 22.34 56.076 22C56.076 21.01 56.076 20.02 56.076 19Z" fill="#CBE2C1"/>
<path d="M152.076 16C152.406 16 152.736 16 153.076 16C153.119 17.6661 153.117 19.3338 153.076 21C152.076 22 152.076 22 149.514 22.0625C148.307 22.0316 148.307 22.0316 147.076 22C147.076 21.34 147.076 20.68 147.076 20C147.715 19.7113 148.355 19.4225 149.014 19.125C151.228 18.1718 151.228 18.1718 152.076 16Z" fill="#CCD4B8"/>
<path d="M83.076 18C85.4617 18.5758 87.7429 19.2223 90.076 20C90.406 19.34 90.736 18.68 91.076 18C91.076 19.32 91.076 20.64 91.076 22C89.426 22 87.776 22 86.076 22C85.746 21.01 85.416 20.02 85.076 19C84.416 18.67 83.756 18.34 83.076 18Z" fill="#C9DABA"/>
<path d="M98.076 0C100.014 0.625 100.014 0.625 102.076 2C102.826 5.125 102.826 5.125 103.076 8C102.416 8 101.756 8 101.076 8C100.086 5.36 99.096 2.72 98.076 0Z" fill="#DF9193"/>
<path d="M107.076 1C108.066 1.33 109.056 1.66 110.076 2C109.746 3.65 109.416 5.3 109.076 7C108.086 7.33 107.096 7.66 106.076 8C106.406 5.69 106.736 3.38 107.076 1Z" fill="#CD444F"/>
<path d="M111.076 3C111.406 3 111.736 3 112.076 3C112.428 8.37306 112.428 8.37306 112.076 11C110.076 13 110.076 13 108.076 14C108.076 13.01 108.076 12.02 108.076 11C108.736 11 109.396 11 110.076 11C110.406 8.36 110.736 5.72 111.076 3Z" fill="#D8D2BE"/>
</svg>
