<svg width="105" height="76" viewBox="0 0 105 76" fill="none" xmlns="http://www.w3.org/2000/svg">
<path d="M52 8.18732C54.5456 11.2421 56.8349 14.3994 59.0625 17.6873C61.9873 21.8987 65.1238 25.8445 68.4375 29.7498C68.9059 30.3066 69.3743 30.8634 69.8569 31.4371C71.9857 33.9404 74.1207 36.3043 76.4844 38.5936C80.7658 42.7839 82.488 45.3213 82.5625 51.4373C82.3348 55.1004 81.7784 58.6027 81 62.1873C74.25 62.3123 74.25 62.3123 72 61.1873C72.0722 60.4886 72.1444 59.79 72.2188 59.0701C72.358 57.705 72.358 57.705 72.5 56.3123C72.6392 54.9549 72.6392 54.9549 72.7812 53.5701C73.0305 51.2542 73.0305 51.2542 73 49.1873C72.01 52.8173 71.02 56.4473 70 60.1873C68.2507 60.2479 66.5015 60.3085 64.6992 60.3709C62.362 60.4554 60.0247 60.54 57.6875 60.6248C55.9656 60.6838 55.9656 60.6838 54.209 60.744C47.1067 61.0055 40.072 61.4795 33 62.1873C32.01 57.8973 31.02 53.6073 30 49.1873C30.33 53.8073 30.66 58.4273 31 63.1873C28.6739 63.5679 26.3394 63.9 24 64.1873C21.2894 61.4767 21.8117 54.1811 21.6914 50.4256C21.7584 47.4791 21.9348 46.3045 23.4023 43.6678C25.375 41.8123 25.375 41.8123 27.6211 40.0545C37.4501 32.3397 46.2314 19.223 52 8.18732Z" fill="#C8313E"/>
<path d="M55 0.187314C58.0887 1.98903 58.8481 2.73155 60 6.18731C62.1382 7.69573 64.2539 9.04387 66.5 10.3748C67.9437 11.2533 69.3864 12.1337 70.8281 13.0154C71.637 13.5085 72.4459 14.0016 73.2793 14.5096C78.0753 17.467 82.8191 20.5065 87.5637 23.5454C89.2307 24.6125 90.8995 25.6766 92.5684 26.7408C93.6028 27.4025 94.6373 28.0642 95.7031 28.7459C96.6277 29.3369 97.5523 29.9278 98.5049 30.5367C99.3283 31.0814 100.152 31.6261 101 32.1873C101.769 32.6708 102.538 33.1543 103.331 33.6524C103.882 34.1589 104.433 34.6654 105 35.1873C105 36.5073 105 37.8273 105 39.1873C104.1 39.1074 103.2 39.0275 102.273 38.9451C98.264 39.2418 97.356 40.2095 94.625 43.0623C90.4814 47.0441 87.6471 48.3659 82 49.1873C81.6578 48.118 81.6578 48.118 81.3086 47.0272C79.7225 43.5851 77.6958 41.4738 75.0625 38.7498C66.7809 29.9901 59.0606 20.6367 53 10.1873C50.0969 13.7832 47.2884 17.4395 44.5 21.1248C40.6831 26.1242 36.7191 30.9749 32.625 35.7498C31.8757 36.6246 31.8757 36.6246 31.1113 37.5171C29.0588 39.8913 26.9999 42.1875 24.7734 44.4022C22.8091 46.2647 22.8091 46.2647 21 49.1873C16.4317 47.5694 13.4622 45.8548 9.9375 42.4998C7.13829 39.9025 6.42041 39.2399 2.5 38.7498C1.675 38.8942 0.85 39.0386 0 39.1873C0.0625 36.9881 0.0625 36.9881 1 34.1873C3.31402 32.3503 5.48001 30.8771 8 29.3748C9.53429 28.4237 11.0681 27.4718 12.6016 26.5193C13.4514 25.9981 14.3012 25.4768 15.1768 24.9398C18.3365 22.9784 21.4639 20.9695 24.5859 18.949C25.72 18.2163 26.8542 17.4837 27.9883 16.751C30.2283 15.3036 32.4678 13.8554 34.707 12.4068C35.7396 11.744 36.7721 11.0812 37.8359 10.3983C38.7594 9.80319 39.6828 9.20812 40.6343 8.59503C43 7.18731 43 7.18731 46 6.18731C46.3434 4.85654 46.6762 3.52299 47 2.18731C50.2576 0.0155594 51.2244 -0.273126 55 0.187314Z" fill="#EBCCAE"/>
<path d="M74 42.1873C75.5645 46.2075 74.4622 49.8866 73.5625 53.9373C73.4149 54.6347 73.2673 55.3321 73.1152 56.0506C72.7513 57.7645 72.3767 59.4762 72 61.1873C72.669 61.2621 73.338 61.3368 74.0273 61.4139C83.5168 62.7131 92.0856 65.8286 101 69.1873C97.16 71.7473 93.6217 71.8506 89.1445 72.2576C88.258 72.3438 87.3715 72.4299 86.4581 72.5186C83.5771 72.7938 80.6951 73.0542 77.8125 73.3123C76.8406 73.402 75.8687 73.4917 74.8673 73.5842C60.2043 74.9284 45.7309 75.7415 31 75.1873C30.67 74.1973 30.34 73.2073 30 72.1873C30.99 71.5273 31.98 70.8673 33 70.1873C24.9975 69.7381 17.9362 70.8424 10.1875 72.6287C7 73.1873 7 73.1873 4 72.1873C5.7285 71.3942 7.45783 70.6029 9.1875 69.8123C10.1504 69.3715 11.1134 68.9306 12.1055 68.4764C19.4909 65.1873 19.4909 65.1873 23 65.1873C23.33 64.5273 23.66 63.8673 24 63.1873C26.31 63.1873 28.62 63.1873 31 63.1873C30.7834 62.0832 30.7834 62.0832 30.5625 60.9568C30.3769 59.981 30.1912 59.0052 30 57.9998C29.8144 57.0369 29.6287 56.074 29.4375 55.0818C29.0312 52.3939 28.9207 49.8996 29 47.1873C31.7211 49.9084 31.6066 52.0351 32.125 55.8123C32.2926 57.0008 32.4602 58.1893 32.6328 59.4139C32.754 60.3291 32.8752 61.2443 33 62.1873C33.9529 61.9729 33.9529 61.9729 34.925 61.7542C42.5785 60.1808 49.8929 59.9485 57.6875 60.0623C59.4732 60.0759 59.4732 60.0759 61.2949 60.0897C64.1968 60.113 67.0983 60.1457 70 60.1873C70.1313 59.4418 70.2626 58.6964 70.3979 57.9283C70.5734 56.9451 70.7489 55.962 70.9297 54.949C71.1023 53.9767 71.2748 53.0043 71.4526 52.0025C72.105 48.6474 72.9853 45.4489 74 42.1873Z" fill="#B9D8AF"/>
<path d="M52 8.18732C54.5456 11.2421 56.8349 14.3994 59.0625 17.6873C61.9873 21.8987 65.1238 25.8445 68.4375 29.7498C68.9059 30.3066 69.3743 30.8634 69.8569 31.4371C71.9857 33.9404 74.1207 36.3043 76.4844 38.5936C80.7658 42.7839 82.488 45.3213 82.5625 51.4373C82.3348 55.1004 81.7784 58.6027 81 62.1873C74.25 62.3123 74.25 62.3123 72 61.1873C72.1458 59.729 72.2917 58.2706 72.4375 56.8123C72.5148 55.8971 72.5922 54.9818 72.6719 54.0389C73 51.1873 73 51.1873 73.6406 48.6483C74.2559 45.8794 74.507 43.9909 74 41.1873C69.9789 35.6336 64.9535 31.5294 59 28.1873C58.67 30.8273 58.34 33.4673 58 36.1873C56.35 36.1873 54.7 36.1873 53 36.1873C54.32 35.8573 55.64 35.5273 57 35.1873C57 31.5573 57 27.9273 57 24.1873C54.03 24.1873 51.06 24.1873 48 24.1873C48.2456 25.4596 48.2456 25.4596 48.4961 26.7576C49.0095 30.2519 49.0985 33.5336 49.0625 37.0623C49.0535 38.2147 49.0445 39.3672 49.0352 40.5545C49.0236 41.4233 49.012 42.2922 49 43.1873C51.64 43.1873 54.28 43.1873 57 43.1873C57.0543 44.937 57.0929 46.6871 57.125 48.4373C57.1482 49.4118 57.1714 50.3864 57.1953 51.3904C56.9986 54.207 56.4457 55.7968 55 58.1873C54.01 57.5273 53.02 56.8673 52 56.1873C51.01 56.8473 50.02 57.5073 49 58.1873C46.4965 48.2403 46.8103 38.3596 47 28.1873C40.5383 31.8766 35.653 36.1607 30.5 41.4998C29.773 42.2404 29.0459 42.9809 28.2969 43.744C26.5241 45.5517 24.7588 47.3661 23 49.1873C22.505 47.7023 22.505 47.7023 22 46.1873C22.4731 45.7374 22.9462 45.2876 23.4336 44.824C34.3308 34.2242 44.9336 21.7057 52 8.18732Z" fill="#8A2D31"/>
<path d="M48 24.1873C50.97 24.1873 53.94 24.1873 57 24.1873C56.9884 24.9698 56.9768 25.7522 56.9648 26.5584C56.9558 27.5703 56.9468 28.5822 56.9375 29.6248C56.9259 30.6342 56.9143 31.6435 56.9023 32.6834C56.7139 35.1275 56.7139 35.1275 58 36.1873C57.9794 35.2386 57.9587 34.2898 57.9375 33.3123C58 30.1873 58 30.1873 59 28.1873C65.1152 30.2746 70.5199 33.9011 74.2378 39.2401C76.7514 45.6618 72.0645 54.4797 70 60.1873C62.74 59.8573 55.48 59.5273 48 59.1873C48 57.2073 48 55.2273 48 53.1873C48.66 54.5073 49.32 55.8273 50 57.1873C50.99 56.5273 51.98 55.8673 53 55.1873C53.66 55.8473 54.32 56.5073 55 57.1873C56.0026 54.1795 56.3031 51.6491 56.5625 48.4998C56.6463 47.5059 56.7301 46.5121 56.8164 45.4881C56.877 44.7288 56.9376 43.9696 57 43.1873C54.36 43.1873 51.72 43.1873 49 43.1873C48.67 36.9173 48.34 30.6473 48 24.1873Z" fill="#C82E3C"/>
<path d="M55 0.187314C58.0887 1.98903 58.8481 2.73155 60 6.18731C62.1382 7.69573 64.2539 9.04387 66.5 10.3748C67.9437 11.2533 69.3864 12.1337 70.8281 13.0154C71.637 13.5085 72.4459 14.0016 73.2793 14.5096C78.0753 17.467 82.8191 20.5065 87.5637 23.5454C89.2307 24.6125 90.8995 25.6766 92.5684 26.7408C93.6028 27.4025 94.6373 28.0642 95.7031 28.7459C96.6277 29.3369 97.5523 29.9278 98.5049 30.5367C99.3283 31.0814 100.152 31.6261 101 32.1873C101.769 32.6708 102.538 33.1543 103.331 33.6524C103.882 34.1589 104.433 34.6654 105 35.1873C105 36.5073 105 37.8273 105 39.1873C100.597 38.2486 97.1578 36.0414 93.375 33.6873C92.6132 33.2154 91.8513 32.7434 91.0664 32.2571C88.3714 30.577 85.6854 28.8828 83 27.1873C81.3395 26.1456 81.3395 26.1456 79.6455 25.0828C76.6762 23.2172 73.7182 21.3346 70.7664 19.4415C69.5927 18.6912 68.4162 17.9452 67.237 17.2037C65.5665 16.1511 63.908 15.0797 62.25 14.0076C61.2858 13.3916 60.3216 12.7756 59.3281 12.1409C56.7486 9.97633 55.9483 8.37896 55 5.18731C53.35 5.18731 51.7 5.18731 50 5.18731C49.8195 5.91048 49.6391 6.63364 49.4531 7.37872C47.4399 11.27 44.3899 12.9245 40.75 15.1248C39.2174 16.0831 37.6849 17.0415 36.1523 17.9998C35.3272 18.509 34.502 19.0182 33.6519 19.5428C29.8246 21.9162 26.03 24.3398 22.2334 26.7618C20.3202 27.9821 18.4055 29.2001 16.4893 30.4156C15.6021 30.9783 14.7149 31.5411 13.8008 32.1209C12.9663 32.6493 12.1318 33.1776 11.272 33.722C9.32999 34.9745 7.43473 36.2713 5.54297 37.5975C3 39.1873 3 39.1873 0 39.1873C0.0625 36.9881 0.0625 36.9881 1 34.1873C3.31402 32.3503 5.48001 30.8771 8 29.3748C9.53429 28.4237 11.0681 27.4718 12.6016 26.5193C13.4514 25.9981 14.3012 25.4768 15.1768 24.9398C18.3365 22.9784 21.4639 20.9695 24.5859 18.949C25.72 18.2163 26.8542 17.4837 27.9883 16.751C30.2283 15.3036 32.4678 13.8554 34.707 12.4068C35.7396 11.744 36.7721 11.0812 37.8359 10.3983C38.7594 9.80319 39.6828 9.20812 40.6343 8.59503C43 7.18731 43 7.18731 46 6.18731C46.3434 4.85654 46.6762 3.52299 47 2.18731C50.2576 0.0155594 51.2244 -0.273126 55 0.187314Z" fill="#CC3D48"/>
<path d="M48 24.1873C50.97 24.1873 53.94 24.1873 57 24.1873C56.9884 24.9698 56.9768 25.7522 56.9648 26.5584C56.9558 27.5703 56.9468 28.5822 56.9375 29.6248C56.9259 30.6342 56.9143 31.6435 56.9023 32.6834C56.7139 35.1275 56.7139 35.1275 58 36.1873C58.0721 37.8734 58.0839 39.5623 58.0625 41.2498C58.0535 42.1689 58.0445 43.088 58.0352 44.035C58.0236 44.7452 58.012 45.4555 58 46.1873C57.67 45.1973 57.34 44.2073 57 43.1873C54.36 43.1873 51.72 43.1873 49 43.1873C48.67 36.9173 48.34 30.6473 48 24.1873Z" fill="#90302E"/>
<path d="M75 42.1873C82 49.1873 82 49.1873 82.1875 52.9998C82.1127 56.16 81.7692 59.1105 81 62.1873C74.25 62.3123 74.25 62.3123 72 61.1873C72.5155 54.6888 73.4667 48.5251 75 42.1873Z" fill="#C93A46"/>
<path d="M48 41.1873C48.33 41.8473 48.66 42.5073 49 43.1873C51.64 43.1873 54.28 43.1873 57 43.1873C57.0543 44.937 57.0929 46.6871 57.125 48.4373C57.1482 49.4118 57.1714 50.3864 57.1953 51.3904C56.9986 54.207 56.4457 55.7968 55 58.1873C54.01 57.5273 53.02 56.8673 52 56.1873C50.515 57.1773 50.515 57.1773 49 58.1873C48.0959 54.3501 47.8943 50.8123 47.9375 46.8748C47.9465 45.8062 47.9556 44.7376 47.9649 43.6365C47.9765 42.8283 47.9881 42.0201 48 41.1873Z" fill="#82232A"/>
<path d="M74 42.1873C75.5645 46.2075 74.4622 49.8866 73.5625 53.9373C73.4149 54.6347 73.2673 55.3321 73.1152 56.0506C72.7513 57.7645 72.3767 59.4762 72 61.1873C72.66 61.5173 73.32 61.8473 74 62.1873C59.15 61.6923 59.15 61.6923 44 61.1873C44 60.8573 44 60.5273 44 60.1873C52.58 60.1873 61.16 60.1873 70 60.1873C70.66 56.5573 71.32 52.9273 72 49.1873C72.6296 46.8437 73.2791 44.5045 74 42.1873Z" fill="#D1AEA2"/>
<path d="M46 14.1873C46.66 14.5173 47.32 14.8473 48 15.1873C45.3253 21.7524 39.9925 25.0148 34 28.1873C35.3813 25.0604 36.979 22.9881 39.4375 20.6248C40.0343 20.046 40.6312 19.4672 41.2461 18.8709C42.1143 18.0375 42.1143 18.0375 43 17.1873C44.0023 16.1896 45.0031 15.1904 46 14.1873Z" fill="#E7C0A6"/>
<path d="M53 24.1873C54.32 24.1873 55.64 24.1873 57 24.1873C57 27.8173 57 31.4473 57 35.1873C55.68 35.1873 54.36 35.1873 53 35.1873C53 31.5573 53 27.9273 53 24.1873Z" fill="#EBA948"/>
<path d="M48 24.1873C49.32 24.1873 50.64 24.1873 52 24.1873C52 27.8173 52 31.4473 52 35.1873C51.01 35.1873 50.02 35.1873 49 35.1873C48.67 31.5573 48.34 27.9273 48 24.1873Z" fill="#F0AF4A"/>
<path d="M32 35.1873C32.8086 36.8592 32.8086 36.8592 33 39.1873C30.9102 41.7654 30.9102 41.7654 28.0625 44.4373C27.1254 45.3293 26.1882 46.2214 25.2227 47.1404C24.4892 47.8159 23.7557 48.4914 23 49.1873C22.67 48.1973 22.34 47.2073 22 46.1873C22.8314 45.3733 22.8314 45.3733 23.6797 44.5428C24.4041 43.8274 25.1286 43.1119 25.875 42.3748C26.5943 41.6671 27.3136 40.9594 28.0547 40.2303C30.1536 38.1433 30.1536 38.1433 32 35.1873Z" fill="#8F3338"/>
<path d="M61 17.1873C63.6667 19.854 66.3333 22.5206 69 25.1873C68.67 25.8473 68.34 26.5073 68 27.1873C65.36 25.2073 62.72 23.2273 60 21.1873C60.33 19.8673 60.66 18.5473 61 17.1873Z" fill="#E8C6A9"/>
<path d="M48 53.1873C48.66 54.5073 49.32 55.8273 50 57.1873C50.99 56.5273 51.98 55.8673 53 55.1873C53.66 55.8473 54.32 56.5073 55 57.1873C55.66 56.1973 56.32 55.2073 57 54.1873C57 55.8373 57 57.4873 57 59.1873C54.03 59.1873 51.06 59.1873 48 59.1873C48 57.2073 48 55.2273 48 53.1873Z" fill="#B22C38"/>
<path d="M15 67.1873C15.66 67.5173 16.32 67.8473 17 68.1873C15 71.1873 15 71.1873 12.3984 71.9178C11.4007 72.0686 10.403 72.2194 9.375 72.3748C8.37211 72.5334 7.36922 72.6919 6.33594 72.8553C5.17965 73.0196 5.17965 73.0196 4 73.1873C7.55294 70.4013 10.7745 68.7523 15 67.1873Z" fill="#C6E2BE"/>
<path d="M55 0.187312C53.02 1.17731 53.02 1.17731 51 2.18731C51.99 2.84731 52.98 3.50731 54 4.18731C52.0225 4.91811 50.0193 5.58153 48 6.18731C47.34 5.85731 46.68 5.52731 46 5.18731C48.1839 0.351546 49.7936 0.0503013 55 0.187312Z" fill="#D35E64"/>
<path d="M49 37.1873C49.99 37.1873 50.98 37.1873 52 37.1873C52 39.1673 52 41.1473 52 43.1873C51.01 43.1873 50.02 43.1873 49 43.1873C49 41.2073 49 39.2273 49 37.1873Z" fill="#E8A648"/>
<path d="M53 37.1873C53.99 37.1873 54.98 37.1873 56 37.1873C56 39.1673 56 41.1473 56 43.1873C55.01 43.1873 54.02 43.1873 53 43.1873C53 41.2073 53 39.2273 53 37.1873Z" fill="#EAA748"/>
</svg>
